<svg xmlns="http://www.w3.org/2000/svg" id="svg0.70868707292747" viewBox="0 0 1024 1024"><path d="M0 0 C337.92 0 675.84 0 1024 0 C1024 337.92 1024 675.84 1024 1024 C686.08 1024 348.16 1024 0 1024 C0 686.08 0 348.16 0 0 Z " transform="translate(0,0)" style="fill: #F7F5F0;"/><path d="M0 0 C1.56838623 -0.02658691 1.56838623 -0.02658691 3.16845703 -0.05371094 C11.44193658 -0.04587497 19.12141626 1.09369096 26.5 5 C28.56042677 7.62882036 29.20788618 9.54552558 28.98828125 12.90234375 C26.48436805 21.83248504 19.43777971 28.79273024 12.3125 34.3125 C11.60996094 34.910625 10.90742187 35.50875 10.18359375 36.125 C-0.34103916 44.95785604 -12.21880865 52.06530515 -24.1875 58.75 C-24.90421875 59.1507373 -25.6209375 59.55147461 -26.359375 59.96435547 C-39.75911513 67.3125 -39.75911513 67.3125 -44.6875 67.3125 C-44.6875 67.9725 -44.6875 68.6325 -44.6875 69.3125 C-45.63367188 69.66441406 -46.57984375 70.01632812 -47.5546875 70.37890625 C-48.8907126 70.87736943 -50.22664193 71.37608936 -51.5625 71.875 C-52.28139404 72.143125 -53.00028809 72.41125 -53.7409668 72.6875 C-57.53833755 74.1099265 -61.32356512 75.55561871 -65.08984375 77.05859375 C-94.76241463 88.88872671 -94.76241463 88.88872671 -107.6875 89.3125 C-106.0838726 85.46198224 -103.59828234 82.88674188 -100.75 79.875 C-96.6465678 75.48017955 -92.64208427 71.02091947 -88.75 66.4375 C-88.30213135 65.91486572 -87.8542627 65.39223145 -87.39282227 64.85375977 C-84.54465099 61.4815894 -82.07042962 58.01682215 -79.6875 54.3125 C-80.52925781 54.77398437 -81.37101562 55.23546875 -82.23828125 55.7109375 C-91.87086781 60.82733213 -101.75791659 64.6376742 -112.02368164 68.29589844 C-121.705591 71.80583433 -130.97344089 75.98181267 -140.19873047 80.55371094 C-145.62618774 83.18232501 -149.6212521 85.04936062 -155.6875 84.3125 C-156.0175 83.3225 -156.3475 82.3325 -156.6875 81.3125 C-150.59244529 70.44024024 -139.22628873 60.18922706 -129.6875 52.3125 C-128.924375 51.62671875 -128.16125 50.9409375 -127.375 50.234375 C-107.2802542 32.59305746 -84.1448977 19.29197762 -58.81396484 11.02636719 C-56.21184354 10.15281923 -53.67308907 9.14423563 -51.125 8.125 C-43.24510948 5.23818476 -34.91056179 3.86429157 -26.6875 2.3125 C-25.54667969 2.08304687 -24.40585937 1.85359375 -23.23046875 1.6171875 C-15.50431367 0.26439586 -7.83074439 0.08012748 0 0 Z " transform="translate(562.6875,384.6875)" style="fill: #F3BC43;"/><path d="M0 0 C6.70599429 4.71061369 12.21901232 10.71982684 14.63671875 18.64453125 C15.7543617 26.81298341 13.76881092 33.7016983 9.38671875 40.6171875 C-4.2167927 58.2012719 -33.81947367 60.93372477 -54.25850391 63.54747868 C-71.06141493 65.56216719 -88.01815989 65.12361836 -104.91070557 64.97747803 C-108.64181099 64.94988779 -112.37285508 64.94160514 -116.10404682 64.93391132 C-120.60325289 64.92393103 -125.10239799 64.90415949 -129.6015625 64.8828125 C-130.44010584 64.87941675 -131.27864918 64.876021 -132.14260292 64.87252235 C-153.88450349 64.76598913 -153.88450349 64.76598913 -164.55078125 61.26953125 C-165.55915039 60.95628906 -165.55915039 60.95628906 -166.58789062 60.63671875 C-170.72496382 59.31543344 -174.51636262 57.69063727 -178.36328125 55.64453125 C-176.70890507 53.62792237 -175.77564033 52.72951565 -173.18359375 52.1953125 C-172.29414063 52.11667969 -171.4046875 52.03804688 -170.48828125 51.95703125 C-155.4246681 49.72271542 -141.03881044 42.12037783 -127.16601562 36.14160156 C-120.51142339 33.3059478 -113.8171033 30.6438665 -107.04296875 28.109375 C-106.23386047 27.80642517 -105.4247522 27.50347534 -104.59112549 27.19134521 C-100.6012674 25.70156478 -96.60674661 24.22590682 -92.60546875 22.76708984 C-79.00815034 17.76261609 -66.28649694 11.45378529 -53.67578125 4.33203125 C-52.55913086 3.70844727 -52.55913086 3.70844727 -51.41992188 3.07226562 C-48.49214087 1.43239541 -45.60092955 -0.20195011 -42.78125 -2.0234375 C-30.50380237 -8.78694258 -11.77920881 -6.75600902 0 0 Z " transform="translate(595.36328125,442.35546875)" style="fill: #F07E30;"/><path d="M0 0 C5.94 0 11.88 0 18 0 C18.33 23.76 18.66 47.52 19 72 C19.66 72 20.32 72 21 72 C21 76.62 21 81.24 21 86 C8.10570825 86.602537 8.10570825 86.602537 4.95703125 84.88671875 C3.625 83.5 3.625 83.5 2 81 C1.13375 81.61875 0.2675 82.2375 -0.625 82.875 C-8.612708 87.90429763 -16.89789023 87.71931567 -26 87 C-32.72745339 85.38704456 -37.15378322 80.54479983 -41 75 C-46.54942966 64.9101279 -47.73124986 53.34479112 -44.8125 42.15625 C-41.64456704 33.74904331 -35.66351086 27.64906153 -27.578125 23.8671875 C-20.99496914 21.65285326 -14.69346056 22.30191595 -8.5 25.3125 C-5.37435338 27.00217585 -3.57109418 28.42890582 -1 31 C-0.67 20.77 -0.34 10.54 0 0 Z " transform="translate(727,531)" style="fill: #0E0E0E;"/><path d="M0 0 C0.70584229 0.01087646 1.41168457 0.02175293 2.13891602 0.03295898 C11.60005584 0.32290949 18.41183172 3.54698056 25.0625 10.375 C30.626624 19.08463829 32.53129714 28.13908209 31.0625 38.375 C28.21284981 46.64548312 23.75324823 54.37881829 15.9375 58.6875 C7.37695945 62.74194006 -2.70382393 63.15605031 -11.80859375 60.5546875 C-19.73260895 56.62701272 -25.45757906 49.58285241 -28.4375 41.375 C-30.9616083 32.51257531 -30.60561348 24.8927167 -26.9375 16.375 C-20.84746076 6.09918157 -12.1897655 -0.25538237 0 0 Z " transform="translate(357.9375,556.625)" style="fill: #0E0E0E;"/><path d="M0 0 C0.96035156 -0.02900391 1.92070313 -0.05800781 2.91015625 -0.08789062 C10.22791773 -0.15242991 16.69716022 0.95076182 22.25830078 6.03393555 C27.23540773 11.32924585 28.59075156 16.81813992 28.7890625 24.0234375 C28.84707031 25.88935547 28.84707031 25.88935547 28.90625 27.79296875 C28.9371875 29.07816406 28.968125 30.36335937 29 31.6875 C29.05800781 33.65009766 29.05800781 33.65009766 29.1171875 35.65234375 C29.21119957 38.87225716 29.29685821 42.0921688 29.375 45.3125 C30.365 45.6425 31.355 45.9725 32.375 46.3125 C32.375 50.9325 32.375 55.5525 32.375 60.3125 C28.18109557 62.40945222 22.9306065 61.86451091 18.375 61.3125 C15.125 59 15.125 59 13.375 56.3125 C13.375 55.3225 13.375 54.3325 13.375 53.3125 C12.87871094 53.72242188 12.38242187 54.13234375 11.87109375 54.5546875 C3.92877461 60.85428788 -3.55830476 62.38342503 -13.625 61.3125 C-19.58357044 59.58765066 -23.11523491 56.31125635 -26.625 51.3125 C-28.32600413 46.2094876 -28.57541517 40.3927612 -26.9765625 35.2109375 C-24.14408209 29.71544132 -19.37717573 26.22989191 -13.625 24.3125 C-11.94861746 24.21933834 -10.26881159 24.1818076 -8.58984375 24.1796875 C-7.61595703 24.17839844 -6.64207031 24.17710937 -5.63867188 24.17578125 C-4.62353516 24.17964844 -3.60839844 24.18351563 -2.5625 24.1875 C-1.54349609 24.18363281 -0.52449219 24.17976562 0.52539062 24.17578125 C1.49798828 24.17707031 2.47058594 24.17835938 3.47265625 24.1796875 C4.36476807 24.18081543 5.25687988 24.18194336 6.17602539 24.18310547 C8.375 24.3125 8.375 24.3125 10.375 25.3125 C10.14907627 21.39648866 9.91072471 18.98647624 7.4375 15.875 C1.40473273 12.79705752 -4.6298797 13.84829955 -10.9375 15.75 C-12.10732422 16.15025391 -12.10732422 16.15025391 -13.30078125 16.55859375 C-15.72361797 17.34448868 -18.12117104 17.85604976 -20.625 18.3125 C-21.30167998 17.06789217 -21.96594719 15.81653104 -22.625 14.5625 C-22.99625 13.86640625 -23.3675 13.1703125 -23.75 12.453125 C-24.625 10.3125 -24.625 10.3125 -24.625 6.3125 C-22.85502526 5.49813132 -21.08398848 4.6860706 -19.3125 3.875 C-18.32636719 3.42253906 -17.34023438 2.97007812 -16.32421875 2.50390625 C-10.75923817 0.04758342 -5.99860243 0.05896398 0 0 Z " transform="translate(643.625,556.6875)" style="fill: #0E0E0E;"/><path d="M0 0 C6.78192306 4.85495599 11.72904767 10.66702949 13.4296875 19.015625 C13.7683896 22.94456932 13.87809506 26.6993057 13.7421875 30.640625 C12.7421875 31.640625 12.7421875 31.640625 10.95152283 31.76087952 C10.17208817 31.75865891 9.3926535 31.75643829 8.58959961 31.75415039 C7.70876205 31.75407486 6.8279245 31.75399933 5.9203949 31.75392151 C4.96310989 31.74876022 4.00582489 31.74359894 3.01953125 31.73828125 C2.04432022 31.7368663 1.06910919 31.73545135 0.06434631 31.73399353 C-3.06390393 31.72837633 -6.19208373 31.71582093 -9.3203125 31.703125 C-11.43554584 31.69811222 -13.55078031 31.69354893 -15.66601562 31.68945312 C-20.86330546 31.67840131 -26.06055395 31.66164646 -31.2578125 31.640625 C-30.80374256 32.92385794 -30.34276442 34.20464773 -29.87890625 35.484375 C-29.49496704 36.55461914 -29.49496704 36.55461914 -29.10327148 37.64648438 C-27.70564234 40.94300036 -26.49077952 42.05713095 -23.2578125 43.640625 C-19.15693967 44.23783949 -15.35130188 44.32382211 -11.2578125 43.640625 C-8.29730376 41.34863097 -8.29730376 41.34863097 -6.2578125 38.640625 C-2.29003673 37.34307354 0.52829432 37.82287978 4.4921875 38.953125 C5.45640625 39.21738281 6.420625 39.48164062 7.4140625 39.75390625 C9.7421875 40.640625 9.7421875 40.640625 10.7421875 42.640625 C5.55151105 50.56427125 -0.05275887 55.09550055 -9.2578125 57.640625 C-20.86096963 58.6235107 -30.28591163 57.71705897 -39.46875 50.30859375 C-45.40414592 44.7749386 -47.78719983 38.99831731 -48.6640625 30.87890625 C-48.91295426 20.45656381 -47.42791105 12.72764274 -40.4296875 4.48828125 C-29.54589333 -5.9752038 -13.00402082 -7.82941046 0 0 Z " transform="translate(596.2578125,560.359375)" style="fill: #0F0F0F;"/><path d="M0 0 C6.6 0 13.2 0 20 0 C22.42483831 4.66119129 24.84716674 9.32351259 27.26318359 13.98925781 C28.08626511 15.57693105 28.91080488 17.16384917 29.73681641 18.75 C30.92211639 21.02668664 32.1021891 23.30601486 33.28125 25.5859375 C33.65310425 26.29744965 34.0249585 27.00896179 34.40808105 27.74203491 C37 32.77225659 37 32.77225659 37 35 C37.66 35 38.32 35 39 35 C39.259021 34.14768799 39.51804199 33.29537598 39.78491211 32.41723633 C41.0584415 28.83564283 42.63912004 25.66976149 44.44140625 22.32421875 C44.76914536 21.71359085 45.09688446 21.10296295 45.43455505 20.47383118 C46.12236015 19.19449137 46.81242121 17.91636208 47.50463867 16.6394043 C48.56746556 14.67833784 49.62314884 12.71355544 50.67773438 10.74804688 C55.8423522 1.1576478 55.8423522 1.1576478 57 0 C58.4887186 -0.08669432 59.981445 -0.10703494 61.47265625 -0.09765625 C62.37177734 -0.09443359 63.27089844 -0.09121094 64.19726562 -0.08789062 C65.61555664 -0.07532227 65.61555664 -0.07532227 67.0625 -0.0625 C68.4865918 -0.05573242 68.4865918 -0.05573242 69.93945312 -0.04882812 C72.29303065 -0.0370011 74.64648477 -0.02052025 77 0 C73.14103849 7.14980467 68.96995878 14.10126128 64.74414062 21.03759766 C63.63194402 22.86359933 62.52280555 24.691431 61.4140625 26.51953125 C61.05164963 27.11476089 60.68923676 27.70999054 60.31584167 28.32325745 C59.58985292 29.51888579 58.86809071 30.71709078 58.15058899 31.91783142 C56.52334598 34.61939617 54.85459517 37.18960542 52.93432617 39.69360352 C46.65201556 48.06814865 46.98796201 56.13304045 47.0625 66.1875 C47.04936453 67.82359594 47.03311151 69.45966995 47.01367188 71.09570312 C46.96743939 75.0656668 46.98505942 79.02793954 47 83 C41.06 83 35.12 83 29 83 C29.06703125 80.78925781 29.1340625 78.57851563 29.203125 76.30078125 C29.51620482 58.56392848 28.60241449 45.52202328 17.91943359 30.73583984 C14.4865547 25.84283031 11.44391259 20.69988492 8.34036255 15.59448242 C7.26594288 13.83855549 6.17675365 12.09278389 5.08178711 10.34960938 C4.42057861 9.29193359 3.75937012 8.23425781 3.078125 7.14453125 C2.48418945 6.19940674 1.89025391 5.25428223 1.27832031 4.28051758 C0 2 0 2 0 0 Z " transform="translate(265,534)" style="fill: #0F0F0F;"/><path d="M0 0 C5.61 0 11.22 0 17 0 C17.01401855 1.87703613 17.01401855 1.87703613 17.02832031 3.79199219 C17.06820482 8.4365595 17.13395941 13.08046335 17.20751953 17.72460938 C17.23573807 19.73428827 17.25694821 21.74407834 17.27099609 23.75390625 C17.29241335 26.64380849 17.33905703 29.5323729 17.390625 32.421875 C17.39185364 33.31992859 17.39308228 34.21798218 17.39434814 35.14324951 C17.49512137 40.19049428 17.49512137 40.19049428 19.82324219 44.57128906 C23.02495466 46.67272709 25.24997244 46.4605297 29 46 C32.70424185 44.31625371 34.99254852 42.53232558 37 39 C37.47480847 36.03092852 37.48867144 33.08055896 37.51171875 30.078125 C37.52966995 29.21813904 37.54762115 28.35815308 37.56611633 27.47210693 C37.62020038 24.73145416 37.65410863 21.99097535 37.6875 19.25 C37.72067479 17.38929872 37.7551646 15.52862039 37.79101562 13.66796875 C37.87592569 9.11210472 37.94274584 4.55629212 38 0 C43.28 0 48.56 0 54 0 C54.33 14.52 54.66 29.04 55 44 C55.99 44.495 55.99 44.495 57 45 C57 49.62 57 54.24 57 59 C54.31432703 60.34283649 52.12253147 60.24287519 49.125 60.3125 C47.55105469 60.36857422 47.55105469 60.36857422 45.9453125 60.42578125 C43 60 43 60 40.6171875 58.16796875 C39 56 39 56 39 53 C38.43152344 53.40992188 37.86304688 53.81984375 37.27734375 54.2421875 C30.36676974 59.0645914 24.6131646 61.61522604 16 61 C10.99694087 59.96488432 7.54305403 58.73457047 4 55 C0.08820542 48.44328014 -0.55211634 42.56593205 -0.390625 35.05859375 C-0.38496521 34.05031021 -0.37930542 33.04202667 -0.37347412 32.00318909 C-0.3512609 28.81412264 -0.3010928 25.62622114 -0.25 22.4375 C-0.22991555 20.26238613 -0.2116682 18.08725448 -0.1953125 15.91210938 C-0.15144547 10.60763085 -0.08252308 5.30401225 0 0 Z " transform="translate(397,558)" style="fill: #0E0E0E;"/><path d="M0 0 C5.61 0 11.22 0 17 0 C17 22.11 17 44.22 17 67 C29.87 67 42.74 67 56 67 C56 72.28 56 77.56 56 83 C37.52 83 19.04 83 0 83 C0 55.61 0 28.22 0 0 Z " transform="translate(488,534)" style="fill: #0D0D0D;"/><path d="M0 0 C4.45657651 2.18777393 7.27061065 4.87736587 10 9 C10.49609375 12.55859375 10.49609375 12.55859375 10.4375 16.4375 C10.43621094 17.71496094 10.43492187 18.99242187 10.43359375 20.30859375 C9.82347902 25.50281374 8.28406765 28.78013574 4.5 32.375 C-0.41476605 34.65685567 -4.67550497 35.03403237 -10 34 C-14.21636527 31.67424691 -17.31103751 28.54055964 -19 24 C-19.3359375 20.5390625 -19.3359375 20.5390625 -19.375 16.625 C-19.40335938 15.33851563 -19.43171875 14.05203125 -19.4609375 12.7265625 C-18.82456966 7.58169026 -16.76524793 4.70400464 -13.0859375 1.15234375 C-9.009245 -1.09976166 -4.50307692 -0.58821034 0 0 Z " transform="translate(718,570)" style="fill: #F2F1ED;"/><path d="M0 0 C3.60758907 1.73698733 5.48498146 3.31330861 7.875 6.5 C9.99201817 13.08627876 10.21665369 20.17572297 7.3125 26.5625 C5.33669146 29.85095643 3.71898763 31.70643909 0 33 C-4.7880697 33.6241873 -8.62033817 33.73386268 -12.9375 31.4375 C-17.46368854 26.08836809 -18.53130922 21.29199061 -18.28125 14.42578125 C-17.67576197 9.20344701 -15.83833431 5.93813602 -12.375 2.0625 C-8.04904581 -0.58113867 -4.94523362 -0.94827956 0 0 Z " transform="translate(363,571)" style="fill: #F2F1EE;"/><path d="M0 0 C-14.03653825 11.65762461 -32.0229471 19.57063259 -49 26 C-49.86544434 26.3314502 -50.73088867 26.66290039 -51.62255859 27.00439453 C-67.3372365 33 -67.3372365 33 -70 33 C-70 32.34 -70 31.68 -70 31 C-69.01 30.505 -69.01 30.505 -68 30 C-75.55670754 31.06493289 -75.55670754 31.06493289 -82.6875 33.625 C-86.7974919 35.33103437 -89.59095146 35.23205519 -94 35 C-90.88624665 33.33533955 -87.76561628 32.19603972 -84.40625 31.1171875 C-83.30240967 30.75818359 -82.19856934 30.39917969 -81.0612793 30.02929688 C-79.88605713 29.64837891 -78.71083496 29.26746094 -77.5 28.875 C-67.93684289 25.74428458 -58.53692384 22.40049309 -49.26953125 18.47607422 C-45.16822927 16.75980706 -41.46246043 15.51080628 -37 15 C-37 14.34 -37 13.68 -37 13 C-36.34257813 12.75507813 -35.68515625 12.51015625 -35.0078125 12.2578125 C-29.91561045 10.25681169 -25.15270018 8.15060948 -20.44140625 5.37109375 C-19.65556152 4.91009277 -18.8697168 4.4490918 -18.06005859 3.97412109 C-16.49787791 3.04465735 -14.9468765 2.09609921 -13.40869141 1.12744141 C-8.1507657 -1.99245484 -5.66803074 -2.46338456 0 0 Z " transform="translate(555,439)" style="fill: #FAEFDC;"/><path d="M0 0 C1.1240625 0.01289062 2.248125 0.02578125 3.40625 0.0390625 C6.31120217 0.35449923 8.03708533 0.86586111 10.5 2.375 C10.04713369 7.24331281 8.91678531 9.86059226 5.5 13.375 C2.40780347 15.6941474 -0.83240458 15.80289015 -4.59375 15.68359375 C-6.5 15.375 -6.5 15.375 -9 13.8125 C-11.08392818 10.42611671 -11.05802097 8.28114682 -10.5 4.375 C-7.4154018 0.20782647 -5.05666278 -0.12757635 0 0 Z " transform="translate(643.5,590.625)" style="fill: #EDEDEA;"/><path d="M0 0 C0.66 0.33 1.32 0.66 2 1 C-2.88578091 4.23293162 -8.24191536 6.3146588 -13.625 8.5625 C-15.51420363 9.35264665 -17.40227734 10.14550181 -19.2890625 10.94140625 C-20.12131348 11.28888916 -20.95356445 11.63637207 -21.81103516 11.99438477 C-24.2120035 13.0281571 -24.2120035 13.0281571 -27 15 C-29.56766546 15.6117498 -32.09543602 16.15063535 -34.6875 16.625 C-35.38939453 16.7590625 -36.09128906 16.893125 -36.81445312 17.03125 C-38.54181706 17.3602717 -40.27076591 17.68095312 -42 18 C-42 18.66 -42 19.32 -42 20 C-38.17010894 21.80230168 -35.21878192 22.19622241 -31 22 C-31 22.66 -31 23.32 -31 24 C-30.14728516 23.96519531 -30.14728516 23.96519531 -29.27734375 23.9296875 C-28.50519531 23.91164063 -27.73304688 23.89359375 -26.9375 23.875 C-25.80634766 23.84019531 -25.80634766 23.84019531 -24.65234375 23.8046875 C-22 24 -22 24 -18.79124451 24.99227905 C-14.92713679 26.0193672 -11.67695462 26.2761823 -7.68774414 26.31884766 C-6.99421844 26.32889328 -6.30069275 26.3389389 -5.58615112 26.34928894 C-3.31916042 26.3799055 -1.05228659 26.39709529 1.21484375 26.4140625 C2.79668671 26.43279154 4.37851987 26.45236623 5.96034241 26.4727478 C10.10468745 26.52389177 14.24906483 26.56361189 18.39355469 26.60089111 C22.6302885 26.6410425 26.86688989 26.69208383 31.10351562 26.7421875 C39.40225301 26.83873656 47.70105639 26.92320796 56 27 C56 27.33 56 27.66 56 28 C46.37665489 28.02323754 36.75331954 28.04097305 27.12995243 28.05181217 C22.66076219 28.05701612 18.19159125 28.06406828 13.72241211 28.07543945 C9.40412139 28.08635713 5.08584916 28.09229556 0.7675457 28.09487724 C-0.87455091 28.09671555 -2.51664659 28.10030514 -4.15873528 28.10573006 C-15.17808709 28.14066482 -25.61252802 28.0915274 -36.1875 24.625 C-37.19586914 24.31175781 -37.19586914 24.31175781 -38.22460938 23.9921875 C-42.36168257 22.67090219 -46.15308137 21.04610602 -50 19 C-48.34562382 16.98339112 -47.41235908 16.0849844 -44.8203125 15.55078125 C-43.93085938 15.47214844 -43.04140625 15.39351563 -42.125 15.3125 C-28.38729289 13.32853502 -15.07256131 6.66659087 -2.51953125 0.93359375 C-1.27236328 0.47146484 -1.27236328 0.47146484 0 0 Z " transform="translate(467,479)" style="fill: #D66D45;"/><path d="M0 0 C3.8026029 2.0050088 5.61790841 3.42686262 8 7 C8 8.65 8 10.3 8 12 C-0.25 12 -8.5 12 -17 12 C-15.96032106 5.76192637 -15.66058052 4.70101765 -11.09765625 1.140625 C-7.41144533 -0.86379509 -4.04807536 -0.8758563 0 0 Z " transform="translate(583,569)" style="fill: #E7E7E4;"/><path d="M0 0 C0.33 0.99 0.66 1.98 1 3 C-0.12279462 3.98169476 -1.24831473 4.96027298 -2.375 5.9375 C-3.31472656 6.75541016 -3.31472656 6.75541016 -4.2734375 7.58984375 C-6 9 -6 9 -8 10 C-8.556875 11.0209375 -8.556875 11.0209375 -9.125 12.0625 C-11.42495093 15.66575646 -14.25558394 18.30931604 -17.35546875 21.23046875 C-19.22692038 22.84154777 -19.22692038 22.84154777 -19 25 C-22.46153846 28 -22.46153846 28 -25 28 C-25 28.99 -25 29.98 -25 31 C-23.94039063 30.566875 -22.88078125 30.13375 -21.7890625 29.6875 C-20.40111517 29.12481865 -19.0130903 28.56232855 -17.625 28 C-16.92632812 27.71382813 -16.22765625 27.42765625 -15.5078125 27.1328125 C-10.2265625 25 -10.2265625 25 -8 25 C-7.67 24.34 -7.34 23.68 -7 23 C-4.09740189 21.6250851 -2.23861295 21 1 21 C1 20.34 1 19.68 1 19 C2.134375 18.690625 3.26875 18.38125 4.4375 18.0625 C7.78775099 17.37075469 7.78775099 17.37075469 9 16 C10.66617115 15.95936168 12.33388095 15.957279 14 16 C14.33 15.01 14.66 14.02 15 13 C16.73901367 12.39477539 16.73901367 12.39477539 18.98046875 12.03515625 C24.03502375 11.06747566 28.56031715 9.37920909 33.3125 7.4375 C34.87022286 6.80903499 36.42878915 6.18265558 37.98828125 5.55859375 C38.66415283 5.28329834 39.34002441 5.00800293 40.03637695 4.72436523 C42.00477739 3.99823766 43.95679797 3.47023589 46 3 C43.83509905 5.40761044 41.97391817 6.62791657 38.96484375 7.796875 C38.16530273 8.11180908 37.36576172 8.42674316 36.54199219 8.7512207 C35.25276855 9.24561646 35.25276855 9.24561646 33.9375 9.75 C33.04063477 10.10215576 32.14376953 10.45431152 31.21972656 10.81713867 C26.99723803 12.47108311 22.76337911 14.09314847 18.51953125 15.69140625 C17.09598434 16.2307958 15.67280457 16.77115534 14.25 17.3125 C13.5398877 17.58167236 12.82977539 17.85084473 12.09814453 18.12817383 C7.57660673 19.88236395 3.17515573 21.8204684 -1.21484375 23.8828125 C-2.28702148 24.38643311 -3.35919922 24.89005371 -4.46386719 25.40893555 C-6.57088889 26.40803149 -8.67213143 27.41943227 -10.76660156 28.44458008 C-16.11633516 30.98984544 -20.05028145 32.67402406 -26 32 C-26.33 31.01 -26.66 30.02 -27 29 C-20.96127991 18.22822903 -9.52954246 7.70771816 0 0 Z " transform="translate(433,437)" style="fill: #E5994F;"/><path d="M0 0 C-2.97 1.65 -5.94 3.3 -9 5 C-9 6.32 -9 7.64 -9 9 C-10.7902061 9.67057887 -12.58221489 10.3363469 -14.375 11 C-15.37273437 11.37125 -16.37046875 11.7425 -17.3984375 12.125 C-20 13 -20 13 -22 13 C-22 12.34 -22 11.68 -22 11 C-21.34 10.67 -20.68 10.34 -20 10 C-27.55670754 11.06493289 -27.55670754 11.06493289 -34.6875 13.625 C-38.7974919 15.33103437 -41.59095146 15.23205519 -46 15 C-42.8124149 13.2926881 -39.5957922 12.1310685 -36.16015625 11.01171875 C-35.01353516 10.63466797 -33.86691406 10.25761719 -32.68554688 9.86914062 C-30.30541302 9.09287055 -27.9252069 8.31682202 -25.54492188 7.54101562 C-18.436436 5.20316635 -11.46918611 2.6717572 -4.54467773 -0.16870117 C-2 -1 -2 -1 0 0 Z " transform="translate(507,459)" style="fill: #FAEBD5;"/><path d="M0 0 C6.60974864 0.29376661 11.17465435 1.17465435 16 6 C17.00558982 11.92180673 15.74031626 15.01496234 12.5 20.0625 C8.82788976 25.19701204 4.97009825 29.1565785 0 33 C-0.81855469 33.67933594 -1.63710938 34.35867188 -2.48046875 35.05859375 C-7.12141831 38.88509528 -11.66566746 42.21686998 -17 45 C-17 44.01 -17 43.02 -17 42 C-15.02 41.505 -15.02 41.505 -13 41 C-13 40.34 -13 39.68 -13 39 C-8.61538462 36 -8.61538462 36 -6 36 C-5.67 35.01 -5.34 34.02 -5 33 C-4.01 33 -3.02 33 -2 33 C-2 32.34 -2 31.68 -2 31 C-0.6796875 29.73828125 -0.6796875 29.73828125 1.125 28.3125 C7.01833286 23.39741267 11.66490359 18.41736508 14 11 C14.26768453 8.24995244 14.26768453 8.24995244 13 6 C9.33634907 3.63898051 7.40218532 3 3 3 C3 2.34 3 1.68 3 1 C2.01 0.67 1.02 0.34 0 0 Z " transform="translate(575,386)" style="fill: #EDD466;"/><path d="M0 0 C6.31254425 3.06062752 10.50665843 8.39869532 13.9375 14.375 C16.4405804 22.91492135 15.2106952 30.20452376 11 38 C8.75 40.625 8.75 40.625 7 42 C7 40.68 7 39.36 7 38 C7.66 38 8.32 38 9 38 C12.18251466 30.49835829 13.5439055 22.70953732 11.37890625 14.703125 C9.22756753 9.7693882 5.79637399 6.73073141 1.609375 3.4453125 C1.07828125 2.96835937 0.5471875 2.49140625 0 2 C0 1.34 0 0.68 0 0 Z " transform="translate(595,443)" style="fill: #E69850;"/><path d="M0 0 C0 0.33 0 0.66 0 1 C-0.99181274 1.03758423 -0.99181274 1.03758423 -2.00366211 1.07592773 C-4.98182305 1.19153102 -7.9596392 1.31441754 -10.9375 1.4375 C-12.49887695 1.49647461 -12.49887695 1.49647461 -14.09179688 1.55664062 C-15.57583008 1.61948242 -15.57583008 1.61948242 -17.08984375 1.68359375 C-18.00628662 1.72025146 -18.92272949 1.75690918 -19.86694336 1.79467773 C-21.9820728 1.77003864 -21.9820728 1.77003864 -23 3 C-24.63256758 3.15714654 -26.27135338 3.25085414 -27.91015625 3.31640625 C-29.39418945 3.37924805 -29.39418945 3.37924805 -30.90820312 3.44335938 C-32.46958008 3.50233398 -32.46958008 3.50233398 -34.0625 3.5625 C-35.10728516 3.60568359 -36.15207031 3.64886719 -37.22851562 3.69335938 C-39.81886884 3.79981225 -42.40932186 3.9018276 -45 4 C-45 3.67 -45 3.34 -45 3 C-29.91104512 0.16765987 -15.3329456 -0.36912647 0 0 Z " transform="translate(575,385)" style="fill: #EDD365;"/><path d="M0 0 C0 0.33 0 0.66 0 1 C-4.14348047 1.57568542 -8.28776015 2.14511636 -12.43286133 2.70898438 C-13.84031863 2.90131375 -15.24755132 3.0952948 -16.65454102 3.29101562 C-18.68708148 3.57345301 -20.7203789 3.84976911 -22.75390625 4.125 C-23.97408447 4.29257812 -25.1942627 4.46015625 -26.45141602 4.6328125 C-29.99540596 4.99952464 -33.43989875 5.06389413 -37 5 C-36 3 -36 3 -33 2 C-30.08019909 1.79389641 -27.17321043 1.62689177 -24.25 1.5 C-16.11153411 1.13977282 -8.14689435 -0.14292797 0 0 Z " transform="translate(560,502)" style="fill: #E28746;"/><path d="M0 0 C1.32 0.33 2.64 0.66 4 1 C4 3.31 4 5.62 4 8 C-2.93 7.67 -9.86 7.34 -17 7 C-17 6.67 -17 6.34 -17 6 C-9.08 5.505 -9.08 5.505 -1 5 C-0.67 3.35 -0.34 1.7 0 0 Z " transform="translate(650,574)" style="fill: #CECECB;"/><path d="M0 0 C0.33 0 0.66 0 1 0 C1.62403611 4.99228891 0.41994324 7.86986242 -2.3046875 11.89453125 C-5.3831715 15.71780976 -8.8283875 19.38061541 -13 22 C-15.27734375 21.71484375 -15.27734375 21.71484375 -17 21 C-16.41992188 20.67128906 -15.83984375 20.34257812 -15.2421875 20.00390625 C-7.31022403 15.1740473 -2.33964725 9.12462428 0 0 Z " transform="translate(609,471)" style="fill: #FCE7CB;"/><path d="M0 0 C0.66 0.33 1.32 0.66 2 1 C-0.33468175 4.50202263 -2.20168313 5.33823637 -6 7 C-6.66 7 -7.32 7 -8 7 C-8.33 7.99 -8.66 8.98 -9 10 C-11.06640625 11.60546875 -11.06640625 11.60546875 -13.5625 13.1875 C-14.38878906 13.71730469 -15.21507812 14.24710937 -16.06640625 14.79296875 C-16.70449219 15.19128906 -17.34257812 15.58960938 -18 16 C-18.66 15.67 -19.32 15.34 -20 15 C-13.76712289 9.34692541 -6.95412153 4.70579653 0 0 Z " transform="translate(458,418)" style="fill: #E3A95A;"/><path d="M0 0 C0.74609375 1.6953125 0.74609375 1.6953125 1 4 C-3.36664918 10.50169387 -9.53536797 15.66675891 -16 20 C-16.66 19.67 -17.32 19.34 -18 19 C-17.06027344 18.29423828 -17.06027344 18.29423828 -16.1015625 17.57421875 C-15.28429687 16.95160156 -14.46703125 16.32898438 -13.625 15.6875 C-12.81289063 15.07261719 -12.00078125 14.45773437 -11.1640625 13.82421875 C-8.80220611 12.00519317 -8.80220611 12.00519317 -7 9 C-6.34 9 -5.68 9 -5 9 C-4.731875 8.443125 -4.46375 7.88625 -4.1875 7.3125 C-2.89877353 4.80287477 -1.47073522 2.40665764 0 0 Z " transform="translate(588,403)" style="fill: #FCF2CB;"/><path d="M0 0 C-3.74385814 1.37158751 -7.49591197 2.71919132 -11.25 4.0625 C-12.31347656 4.45244141 -13.37695312 4.84238281 -14.47265625 5.24414062 C-16.00986328 5.79038086 -16.00986328 5.79038086 -17.578125 6.34765625 C-18.99206543 6.85824585 -18.99206543 6.85824585 -20.43457031 7.37915039 C-23.10352907 8.02505467 -24.4521031 7.92531647 -27 7 C-25.09417774 6.28531665 -23.18817374 5.57111414 -21.28125 4.859375 C-19.84023684 4.31652758 -18.402255 3.76550004 -16.96875 3.203125 C-4.70192308 -1.56730769 -4.70192308 -1.56730769 0 0 Z " transform="translate(492,464)" style="fill: #E4A852;"/><path d="M0 0 C0.66 0.33 1.32 0.66 2 1 C0.35 3.31 -1.3 5.62 -3 8 C-3.33 7.34 -3.66 6.68 -4 6 C-4.556875 6.33 -5.11375 6.66 -5.6875 7 C-8.30284522 8.1309601 -10.1806646 8.15662974 -13 8 C-10.33665788 6.22443858 -7.65774807 4.49913393 -4.9375 2.8125 C-4.05964844 2.26207031 -3.18179687 1.71164062 -2.27734375 1.14453125 C-1.52582031 0.76683594 -0.77429688 0.38914062 0 0 Z " transform="translate(482,438)" style="fill: #FCEBC6;"/><path d="M0 0 C0.66 0.33 1.32 0.66 2 1 C-3.24258516 4.11464243 -8.04675579 6.60668753 -14 8 C-14.33 7.34 -14.66 6.68 -15 6 C-12.54524486 4.96971956 -10.08685649 3.95054496 -7.625 2.9375 C-6.57699219 2.49567383 -6.57699219 2.49567383 -5.5078125 2.04492188 C-3.69495092 1.30408902 -1.84876857 0.64603036 0 0 Z " transform="translate(505,458)" style="fill: #FAEBC8;"/><path d="M0 0 C1 3 1 3 -0.125 5.375 C-2.17042131 8.23858983 -4.44693946 10.58494274 -7 13 C-7.66 12.67 -8.32 12.34 -9 12 C-6.03 8.04 -3.06 4.08 0 0 Z " transform="translate(483,439)" style="fill: #E5B35B;"/><path d="M0 0 C0.66 0 1.32 0 2 0 C2.66 2.64 3.32 5.28 4 8 C3.01 8 2.02 8 1 8 C0.34 9.32 -0.32 10.64 -1 12 C-0.67 8.04 -0.34 4.08 0 0 Z " transform="translate(547,595)" style="fill: #E9E8E4;"/><path d="M0 0 C0.99 0 1.98 0 3 0 C3.33 0.66 3.66 1.32 4 2 C7.75920564 3.93330576 10.80924525 4.19491883 15 4 C15 4.66 15 5.32 15 6 C5.92307692 6.30769231 5.92307692 6.30769231 2 4 C0.6875 1.875 0.6875 1.875 0 0 Z " transform="translate(421,497)" style="fill: #DF6841;"/><path d="M0 0 C0.33 0.99 0.66 1.98 1 3 C-6.11389522 9.51936219 -6.11389522 9.51936219 -11 11 C-7.33333333 7.33333333 -3.66666667 3.66666667 0 0 Z " transform="translate(433,437)" style="fill: #E59953;"/><path d="M0 0 C0 3.77910478 -0.99703962 4.46106101 -3.5 7.1875 C-4.1496875 7.90292969 -4.799375 8.61835938 -5.46875 9.35546875 C-5.9740625 9.89816406 -6.479375 10.44085938 -7 11 C-7.66 10.67 -8.32 10.34 -9 10 C-6.03 6.7 -3.06 3.4 0 0 Z " transform="translate(467,459)" style="fill: #E6AA5E;"/><path d="M0 0 C4.49092377 2.37754788 7.52235713 5.3606063 11 9 C10.67 9.66 10.34 10.32 10 11 C8.32742645 9.5484451 6.66208242 8.08855591 5 6.625 C4.071875 5.81289063 3.14375 5.00078125 2.1875 4.1640625 C1.465625 3.44992187 0.74375 2.73578125 0 2 C0 1.34 0 0.68 0 0 Z " transform="translate(595,443)" style="fill: #E1914B;"/><path d="M0 0 C2 3 2 3 3 5.125 C3.85860158 7.17044538 3.85860158 7.17044538 6 8 C5.67 9.32 5.34 10.64 5 12 C1.75254486 7.86687528 0 5.36067372 0 0 Z " transform="translate(294,549)" style="fill: #E8E8E4;"/><path d="M0 0 C0 0.66 0 1.32 0 2 C-0.99 2.495 -0.99 2.495 -2 3 C-1.67 3.66 -1.34 4.32 -1 5 C-2.98 4.34 -4.96 3.68 -7 3 C-4.49955934 -0.00052879 -4.2621484 0 0 0 Z " transform="translate(424,495)" style="fill: #CF6D4B;"/><path d="M0 0 C0.598125 0.763125 1.19625 1.52625 1.8125 2.3125 C3.46959332 4.3483575 5.10297674 6.1978279 7 8 C3 8 3 8 0.6875 5.6875 C0.130625 4.800625 -0.42625 3.91375 -1 3 C-0.67 2.01 -0.34 1.02 0 0 Z " transform="translate(346,596)" style="fill: #131414;"/><path d="M0 0 C1.65 0 3.3 0 5 0 C4.67 0.99 4.34 1.98 4 3 C2.02 3.33 0.04 3.66 -2 4 C-1.34 2.68 -0.68 1.36 0 0 Z " transform="translate(526,450)" style="fill: #F8F4EE;"/><path d="M0 0 C0.33 0.66 0.66 1.32 1 2 C-1.75 4.0625 -1.75 4.0625 -5 6 C-6.32 5.67 -7.64 5.34 -9 5 C-6.03 3.35 -3.06 1.7 0 0 Z " transform="translate(540,448)" style="fill: #E39652;"/><path d="M0 0 C2.0625 0.4375 2.0625 0.4375 4 1 C2.90716423 2.03295436 1.80029421 3.05107835 0.6875 4.0625 C0.07261719 4.63097656 -0.54226563 5.19945312 -1.17578125 5.78515625 C-1.77777344 6.18605469 -2.37976563 6.58695313 -3 7 C-3.99 6.67 -4.98 6.34 -6 6 C-4 4 -2 2 0 0 Z " transform="translate(591,598)" style="fill: #3B3B38;"/><path d="M0 0 C0.66 0.66 1.32 1.32 2 2 C-1.3 3.32 -4.6 4.64 -8 6 C-8 5.34 -8 4.68 -8 4 C-5.36 2.68 -2.72 1.36 0 0 Z " transform="translate(462,479)" style="fill: #FCE8D7;"/><path d="M0 0 C-1.1875 1.5 -1.1875 1.5 -3 3 C-5.6875 3.1875 -5.6875 3.1875 -8 3 C-8 2.34 -8 1.68 -8 1 C-2.25 -1.125 -2.25 -1.125 0 0 Z " transform="translate(526,451)" style="fill: #FAECC9;"/><path d="M0 0 C0 0.66 0 1.32 0 2 C-0.99 2 -1.98 2 -3 2 C-3.33 2.99 -3.66 3.98 -4 5 C-5.65 5 -7.3 5 -9 5 C-2.87096774 0 -2.87096774 0 0 0 Z " transform="translate(550,443)" style="fill: #E3954F;"/><path d="M0 0 C-2.76223278 2.76223278 -5.20706617 2.57856291 -9 3 C-5.83583464 -0.30799106 -4.50236011 -1.35070803 0 0 Z " transform="translate(559,440)" style="fill: #E69852;"/></svg>